<?xml version="1.0" encoding="utf-8"?>
<?xml-stylesheet type="text/xsl" href="rss1.xsl"?>
<rss version="2.0" xmlns:atom="http://www.w3.org/2005/Atom" xmlns:content="http://purl.org/rss/1.0/modules/content/" xmlns:dc="http://purl.org/dc/elements/1.1/" xmlns:media="http://search.yahoo.com/mrss/">
<channel>
 <title>Getty</title>
 <link>http://www.gettyimg.com/</link>
 <atom:link href="http://www.gettyimg.com/" rel="self" type="application/rss+xml" />

 
                <item>
                <title><![CDATA[【Bugs!】KWON EUNBI - Please Summer! (Bugs! 4K)]]></title>
                <link><![CDATA[https://sharemania.us/threads/kwon-eunbi-please-summer-bugs-4k.251316/]]></link>
                <description><![CDATA[<article>
<blockquote class="messageText SelectQuoteContainer ugc baseHtml">
<span data-s9e-mediaembed="youtube" style="display:inline-block;width:100%;max-width:640px"><span style="display:block;overflow:hidden;position:relative;padding-bottom:56.25%"><iframe allowfullscreen="" loading="lazy" scrolling="no" style="background:url(https://i.ytimg.com/vi/Wdpn_mL_l2I/hqdefault.jpg) 50% 50% / cover;border:0;height:100%;left:0;position:absolute;width:100%" src="https://www.youtube.com/embed/Wdpn_mL_l2I"></iframe></span></span><br>
<div class="ToggleTriggerAnchor bbCodeSpoilerContainer">
<button type="button" class="button bbCodeSpoilerButton ToggleTrigger Tooltip JsOnly" data-target="> .SpoilerTarget"><span>Spoiler: <span class="SpoilerTitle">MediaInfo</span></span></button>
<div class="SpoilerTarget bbCodeSpoilerText">General<br>
Complete name : ./bugs/KWON EUNBI - Please Summer! (Bugs! 4K).mp4<br>
Format : MPEG-4<br>
Format profile : Base Media / Version 2<br>
Codec ID : mp42 (isom/mp41/mp42)<br>
File size : 1.71 GiB<br>
Duration : 4 min 5 s<br>
Overall bit rate : 59.8 Mb/s<br>
Frame rate : 23.976 FPS<br>
Movie name : 파일정리 final<br>
Movie_More : This video is about 파일정리 final<br>
Performer : HYONI<br>
Keywords : 2024. 7. 18.,빨간색<br>
Encoded date : 2024-07-26 05:11:14 UTC<br>
Tagged date : 2024-07-26 05:13:13 UTC<br>
Cover type : Thumbnail<br>
<br>
Video<br>
ID : 2<br>
Format : AVC<br>
Format/Info : Advanced Video Codec<br>
Format profile : High@L5.2<br>
Format settings : CABAC / 1 Ref Frames<br>
Format settings, CABAC : Yes<br>
Format settings, Reference frames : 1 frame<br>
Codec ID : avc1<br>
Codec ID/Info : Advanced Video Coding<br>
Duration : 4 min 5 s<br>
Bit rate : 59.6 Mb/s<br>
Width : 3 840 pixels<br>
Height : 2 880 pixels<br>
Display aspect ratio : 4:3<br>
Frame rate mode : Constant<br>
Frame rate : 23.976 (24000/1001) FPS<br>
Color space : YUV<br>
Chroma subsampling : 4:2:0<br>
Bit depth : 8 bits<br>
Scan type : Progressive<br>
Bits/(Pixel*Frame) : 0.225<br>
Stream size : 1.70 GiB (100%)<br>
Title : Core Media Video<br>
Encoded date : 2024-07-26 05:11:14 UTC<br>
Tagged date : 2024-07-26 05:13:13 UTC<br>
Color range : Limited<br>
Color primaries : BT.709<br>
Transfer characteristics : BT.709<br>
Matrix coefficients : BT.709<br>
Codec configuration box : avcC<br>
<br>
Audio<br>
ID : 1<br>
Format : AAC LC<br>
Format/Info : Advanced Audio Codec Low Complexity<br>
Codec ID : mp4a-40-2<br>
Duration : 4 min 5 s<br>
Source duration : 4 min 5 s<br>
Bit rate mode : Constant<br>
Bit rate : 128 kb/s<br>
Channel(s) : 2 channels<br>
Channel layout : L R<br>
Sampling rate : 48.0 kHz<br>
Frame rate : 46.875 FPS (1024 SPF)<br>
Compression mode : Lossy<br>
Stream size : 3.66 MiB (0%)<br>
Source stream size : 3.66 MiB (0%)<br>
Title : Core Media Audio<br>
Language : English<br>
Encoded date : 2024-07-26 05:11:14 UTC<br>
Tagged date : 2024-07-26 05:13:13 UTC<br>
<br>
Image<br>
Format : JPEG<br>
Width : 3 840 pixels<br>
Height : 2 880 pixels<br>
Color space : YUV<br>
Chroma subsampling : 4:2:0<br>
Bit depth : 8 bits<br>
Compression mode : Lossy<br>
Stream size : 1.26 MiB (0%)</div>
</div>
<div class="bbCodeBlock bbCodeVfcHH HiddenContent">
<div class="attribution type">Hidden Content:</div>
<blockquote>You must either reply or click 'Like' to see the hidden information contained here.</blockquote>
</div>
<div class="messageTextEndMarker">&nbsp;</div>
</blockquote>
</article>]]></description>
                <author><![CDATA[Once14]]></author>
                </item>

                
                <item>
                <title><![CDATA[【HD Live Performances】HDTV - Ariana Grande - Focus - The 43rd Annual American Music Awards S01E43 22Nov2015 720p60fps Backhaul FLAC 5.1 MPEG2-TrollHD]]></title>
                <link><![CDATA[https://sharemania.us/threads/ariana-grande-focus-the-43rd-annual-american-music-awards-s01e43-22nov2015-720p60fps-backhaul-flac-5-1-mpeg2-trollhd.251318/]]></link>
                <description><![CDATA[<article>
<blockquote class="messageText SelectQuoteContainer ugc baseHtml">
<img src="https://iili.io/dTBU6bV.png" class="bbCodeImage LbImage" alt="[​IMG]" data-url="https://iili.io/dTBU6bV.png" style=""><br>
<div style="text-align: center">
<div class="bbCodeBlock bbCodeVfcHH HiddenContent">
<div class="attribution type">Hidden Content:</div>
<blockquote>You must either reply or click 'Like' to see the hidden information contained here.</blockquote>
</div></div>
<div class="messageTextEndMarker">&nbsp;</div>
</blockquote>
</article>]]></description>
                <author><![CDATA[SCANDAL]]></author>
                </item>

                
                <item>
                <title><![CDATA[【HD Live Performances】HDTV - Nicki Minaj &amp; David Guetta - Turn me on, Super Bass - American Music Awards S01E39 20Nov2011 ABC 1080i DD5.1 MPEG2-TrollHD]]></title>
                <link><![CDATA[https://sharemania.us/threads/nicki-minaj-david-guetta-turn-me-on-super-bass-american-music-awards-s01e39-20nov2011-abc-1080i-dd5-1-mpeg2-trollhd.251317/]]></link>
                <description><![CDATA[<article>
<blockquote class="messageText SelectQuoteContainer ugc baseHtml">
<img src="https://iili.io/dTBUsWP.png" class="bbCodeImage LbImage" alt="[​IMG]" data-url="https://iili.io/dTBUsWP.png" style=""><br>
<div style="text-align: center">
<div class="bbCodeBlock bbCodeVfcHH HiddenContent">
<div class="attribution type">Hidden Content:</div>
<blockquote>You must either reply or click 'Like' to see the hidden information contained here.</blockquote>
</div></div>
<div class="messageTextEndMarker">&nbsp;</div>
</blockquote>
</article>]]></description>
                <author><![CDATA[SCANDAL]]></author>
                </item>

                </channel></rss>